# xmcd
#
# Track frame offsets: 
#        150
#        12147
#        34004
#        44829
#        55466
#        79837
#        99014
#        114000
#        130256
#        162311
#        178810
#        194384
#        210624
#        233196
#        261591
#        281254
#
# Disc length: 3929 seconds
#
# Revision: 0
# Processed by: cddbd v1.5.2PL0 Copyright (c) Steve Scherf et al.
# Submitted via: ExactAudioCopy v0.95b3
#
DISCID=db0f5710
DTITLE=The Guess Who  - Road Food and Power in the Music
DYEAR=1900
DGENRE=
TTITLE0=Star Baby
TTITLE1=Attila's Blues
TTITLE2=Straighten Out
TTITLE3=Don't You Want Me
TTITLE4=One Way Road to Hell
TTITLE5=Clap for the Wolfman
TTITLE6=Pleasin' for Reason
TTITLE7=Road Food
TTITLE8=The Ballad of the Last Five Years
TTITLE9=Down and Out Woman
TTITLE10=Women
TTITLE11=When the Band Was Singin' (Shakin' All Over)
TTITLE12=Dreams
TTITLE13=Rich World - Poor World
TTITLE14=Rosanne
TTITLE15=Coors for Sunday
EXTD=
EXTT0=
EXTT1=
EXTT2=
EXTT3=
EXTT4=
EXTT5=
EXTT6=
EXTT7=
EXTT8=
EXTT9=
EXTT10=
EXTT11=
EXTT12=
EXTT13=
EXTT14=
EXTT15=
PLAYORDER=
